<?xml version="1.0" standalone="no"?>
<!DOCTYPE svg PUBLIC "-//W3C//DTD SVG 20010904//EN"
 "http://www.w3.org/TR/2001/REC-SVG-20010904/DTD/svg10.dtd">
<svg version="1.0" xmlns="http://www.w3.org/2000/svg"
 width="1020.000000pt" height="1020.000000pt" viewBox="0 0 1020.000000 1020.000000"
 preserveAspectRatio="xMidYMid meet">
<metadata>
Created by potrace 1.14, written by Peter Selinger 2001-2017
</metadata>
<g transform="translate(0.000000,1020.000000) scale(0.100000,-0.100000)"
fill="#000000" stroke="none">
<path d="M609 8400 c-298 -73 -532 -313 -594 -610 -13 -62 -15 -400 -15 -2698
0 -2568 1 -2629 20 -2708 72 -302 311 -536 610 -599 63 -13 596 -15 4473 -15
4326 0 4403 0 4483 20 302 72 536 311 599 610 13 62 15 400 15 2698 0 2568 -1
2629 -20 2708 -72 302 -311 536 -610 599 -63 13 -595 15 -4478 14 -4266 0
-4409 -1 -4483 -19z m5791 -1585 l0 -465 250 0 250 0 0 -250 0 -250 -250 0
-250 0 0 -121 0 -121 83 -106 c105 -134 193 -254 369 -500 l138 -194 -38 -52
c-20 -28 -86 -120 -147 -204 l-110 -152 -38 83 c-46 98 -220 424 -241 452 -14
18 -15 -78 -16 -927 l0 -948 -250 0 -250 0 -2 868 -3 867 -39 -105 c-67 -181
-153 -377 -234 -534 -76 -148 -167 -296 -181 -296 -4 0 -23 39 -44 88 -34 80
-150 302 -190 362 -16 25 -16 27 32 93 207 284 448 836 575 1316 l35 131 -275
0 -274 0 0 250 0 250 300 0 300 0 0 465 0 465 250 0 250 0 0 -465z m-1971 259
c83 -103 150 -188 148 -190 -7 -7 -347 -53 -572 -78 -238 -26 -620 -58 -924
-76 -96 -6 -176 -12 -178 -13 -4 -5 -63 -200 -63 -209 0 -5 396 -8 880 -8
l880 0 0 -200 0 -200 -952 0 -953 -1 -32 -82 c-17 -45 -35 -90 -38 -99 -7 -17
50 -18 1109 -18 l1116 0 0 -210 0 -210 -1217 0 -1218 0 -45 -83 c-25 -45 -46
-88 -48 -94 -3 -10 213 -13 1052 -13 l1056 0 0 -1120 0 -1120 -270 0 -270 0 0
80 0 80 -820 0 -820 0 0 -80 0 -80 -255 0 -255 0 0 740 c0 407 -3 740 -6 740
-4 0 -48 -39 -98 -88 -98 -93 -212 -187 -335 -275 -82 -60 -250 -167 -260
-167 -4 0 -15 14 -25 30 -32 55 -163 227 -236 309 l-70 80 72 42 c372 216 688
517 957 909 l72 105 -480 3 -481 2 0 210 0 210 594 0 594 0 36 85 c20 46 39
91 42 100 5 13 -47 15 -475 15 l-481 0 0 200 0 200 552 2 552 3 22 75 c39 130
106 116 -521 112 -448 -3 -546 -1 -549 10 -2 7 -11 52 -20 100 -9 48 -30 129
-46 179 -17 51 -29 93 -28 94 2 2 262 8 578 14 1077 21 1955 77 2450 155 47 8
94 14 106 15 16 1 59 -46 173 -185z m4941 -309 l0 -245 -872 -2 -873 -3 -3
-323 -2 -323 716 2 717 1 144 -43 145 -44 -7 -50 c-12 -94 -66 -350 -106 -505
-104 -400 -252 -763 -435 -1067 -41 -68 -74 -129 -74 -137 0 -18 170 -170 290
-260 112 -84 307 -199 405 -240 39 -16 72 -31 74 -32 2 -2 -27 -36 -64 -76
-82 -89 -192 -229 -241 -309 -20 -32 -42 -59 -48 -59 -17 0 -197 104 -295 169
-128 87 -233 172 -353 289 l-108 105 -104 -101 c-156 -150 -381 -317 -567
-421 l-56 -31 -38 62 c-57 92 -176 246 -234 302 l-50 49 106 59 c202 112 392
257 546 416 l77 80 -71 118 c-125 211 -248 479 -345 749 -23 66 -44 113 -47
105 -2 -8 -12 -89 -22 -180 -74 -715 -279 -1326 -587 -1744 -3 -5 -33 15 -66
46 -77 71 -216 175 -297 223 l-63 36 53 77 c231 338 378 782 450 1357 34 281
38 388 42 1288 l5 907 1129 0 1129 0 0 -245z"/>
<path d="M2257 4883 c-4 -3 -7 -48 -7 -100 l0 -93 820 0 820 0 0 100 0 100
-813 0 c-448 0 -817 -3 -820 -7z"/>
<path d="M2257 4353 c-4 -3 -7 -51 -7 -105 l0 -98 820 0 821 0 -3 103 -3 102
-811 3 c-446 1 -814 -1 -817 -5z"/>
<path d="M2250 3715 l0 -105 820 0 820 0 0 105 0 105 -820 0 -820 0 0 -105z"/>
<path d="M7970 5380 c0 -17 77 -243 121 -355 47 -121 200 -431 250 -509 38
-61 31 -68 133 134 107 210 224 520 270 713 l6 27 -390 0 c-245 0 -390 -4
-390 -10z"/>
</g>
</svg>
